<svg xmlns="http://www.w3.org/2000/svg" fill="none" stroke="currentColor" height="24" width="24" viewBox="0 0 24 24">
  <style>
    @media (prefers-color-scheme: light) { :root { filter: none; } }
    @media (prefers-color-scheme: dark) { :root { filter: invert(100%); } }
  </style>
  <path stroke-linecap="round" stroke-linejoin="round" stroke-width="2" d="M19 20H5a2 2 0 01-2-2V6a2 2 0 012-2h10a2 2 0 012 2v1m2 13a2 2 0 01-2-2V7m2 13a2 2 0 002-2V9a2 2 0 00-2-2h-2m-4-3H9M7 16h6M7 8h6v4H7V8z"></path>
</svg>
